<?xml version="1.0" encoding="UTF-8"?>
<svg id="Layer_1" xmlns="http://www.w3.org/2000/svg" version="1.1" viewBox="0 0 16 16">
  <!-- Generator: Adobe Illustrator 29.3.0, SVG Export Plug-In . SVG Version: 2.1.0 Build 146)  -->
  <defs>
    <style>
      .st0, .st1 {
        fill: #fff;
      }

      .st1 {
        fill-rule: evenodd;
      }
    </style>
  </defs>
  <path class="st1" d="M8,3c-2.8,0-5,2.2-5,5,0,2.8,2.2,5,5,5,2.8,0,5-2.2,5-5,0-.7-.2-1.4-.5-2.1-.1-.3,0-.5.3-.7.2,0,.5,0,.6.2,1.4,3,0,6.6-2.9,8-3,1.4-6.6,0-8-2.9s0-6.6,2.9-8c.8-.4,1.6-.5,2.5-.5v1Z"/>
  <path class="st0" d="M8,4.5V.5c0-.1.1-.2.3-.2,0,0,.1,0,.2,0l2.4,2c.1,0,.1.3,0,.4l-2.4,2c-.1,0-.3,0-.4,0,0,0,0-.1,0-.2"/>
</svg>